<svg width="50" height="50" viewBox="0 0 50 50" fill="none" xmlns="http://www.w3.org/2000/svg">
<path d="M18.4195 23.0321L23.0198 18.4318L19.3129 14.7373L16.7755 17.2622L14.5382 15.0249L17.088 12.4876L13.269 8.73303L8.68109 13.3458L18.4195 23.0321ZM36.6147 41.3315L41.215 36.6791L37.3835 32.8601L34.8461 35.3974L32.6213 33.1601L35.1586 30.6228L31.5038 26.9554L26.891 31.5682L36.6147 41.3315ZM14.4748 44.0614H5.9388V35.5129L15.9807 25.4585L3.85547 13.3333L13.2168 3.85532L25.4586 16.0451L36.917 4.58672L45.4258 13.0707L33.9551 24.529L46.1573 36.7312L36.7313 46.0927L24.5687 33.9425L14.4747 44.0614H14.4748ZM9.35026 40.6499H13.0085L33.0663 20.5277L29.4204 16.8693L9.35026 36.9792V40.6499ZM31.2433 18.6922L29.4204 16.8693L33.0663 20.5277L31.2433 18.6922Z" fill="#20282C"/>
</svg>
