<svg width="50" height="50" viewBox="0 0 50 50" fill="none" xmlns="http://www.w3.org/2000/svg">
<g clip-path="url(#clip0_2509_19681)">
<path fill-rule="evenodd" clip-rule="evenodd" d="M18.0782 2H32.595C37.5993 2 41.6731 5.96005 41.6731 10.7142C41.6731 13.4935 40.2794 16.004 38.1205 17.6066C40.2794 19.2113 41.6731 21.7197 41.6731 24.5011C41.6731 29.2532 37.5993 33.2132 32.595 33.2132C30.556 33.2132 28.6721 32.5577 27.1563 31.4575V38.2858C27.1563 43.04 23.0846 47 18.0782 47C13.0738 47 9 43.04 9 38.2858C9 35.5065 10.3938 32.9981 12.5527 31.3934C10.3938 29.7887 9 27.2804 9 24.5011C9 21.7197 10.3938 19.2113 12.5527 17.6066C10.3938 16.004 9 13.4935 9 10.7142C9 5.96005 13.0738 2 18.0782 2ZM23.5168 33.2132H18.0782C15.121 33.2132 12.6395 35.4776 12.6395 38.2858C12.6395 41.0961 15.121 43.3584 18.0782 43.3584C21.0374 43.3584 23.5168 41.0961 23.5168 38.2858V33.2132ZM27.1563 24.5011C27.1563 21.6908 29.6358 19.4264 32.595 19.4264C35.5521 19.4264 38.0336 21.6908 38.0336 24.5011C38.0336 27.3093 35.5521 29.5736 32.595 29.5736C29.6358 29.5736 27.1563 27.3093 27.1563 24.5011ZM18.0099 19.4285C15.0817 19.4615 12.6395 21.7135 12.6395 24.5011C12.6395 27.3093 15.121 29.5736 18.0782 29.5736H23.5168V19.4264H18.0782L18.0099 19.4285ZM23.5168 15.7868V5.64158H18.0782C15.121 5.64158 12.6395 7.90389 12.6395 10.7142C12.6395 13.5245 15.121 15.7868 18.0782 15.7868H23.5168ZM27.1563 15.7868H32.595C35.5521 15.7868 38.0336 13.5245 38.0336 10.7142C38.0336 7.90389 35.5521 5.64158 32.595 5.64158H27.1563V15.7868Z" fill="#20282C"/>
</g>
<defs>
<clipPath id="clip0_2509_19681">
<rect width="50" height="50" fill="white"/>
</clipPath>
</defs>
</svg>
