<svg width="50" height="50" viewBox="0 0 50 50" fill="none" xmlns="http://www.w3.org/2000/svg">
<path d="M2.73438 42.1399V36.9078C2.73438 35.6319 3.06222 34.4772 3.71792 33.4436C4.37358 32.4101 5.28441 31.6332 6.45042 31.113C9.00174 30.0019 11.3054 29.1991 13.3613 28.7047C15.4173 28.2103 17.5344 27.9631 19.7126 27.9631C21.9068 27.9631 24.0212 28.2082 26.0558 28.6985C28.0905 29.1887 30.3835 29.9936 32.9348 31.113C34.0986 31.6226 35.0175 32.3944 35.6917 33.4286C36.3658 34.4628 36.7029 35.6223 36.7029 36.9071V42.1399H2.73438ZM39.9649 42.1399V36.9328C39.9649 34.7286 39.4114 32.9068 38.3045 31.4674C37.1975 30.0279 35.7329 28.8285 33.9108 27.8691C36.2402 28.1552 38.4369 28.5632 40.501 29.0931C42.5651 29.623 44.2486 30.2268 45.5514 30.9047C46.7221 31.5644 47.6477 32.4128 48.3282 33.4498C49.0087 34.4869 49.349 35.6605 49.349 36.9708V42.1399H39.9649ZM19.7155 24.786C17.3719 24.786 15.4585 24.0444 13.9753 22.5611C12.4921 21.0779 11.7505 19.1634 11.7505 16.8178C11.7505 14.4722 12.4923 12.5577 13.9759 11.0745C15.4595 9.59125 17.3719 8.84964 19.713 8.84964C22.0541 8.84964 23.9683 9.59139 25.4557 11.0749C26.9431 12.5584 27.6868 14.4706 27.6868 16.8116C27.6868 19.1614 26.9442 21.0779 25.4588 22.5611C23.9735 24.0444 22.0591 24.786 19.7155 24.786ZM38.9232 16.8115C38.9232 19.153 38.1798 21.0675 36.6928 22.5549C35.2058 24.0423 33.2901 24.786 30.9457 24.786C30.555 24.786 30.1301 24.7579 29.6709 24.7017C29.2117 24.6454 28.7787 24.5437 28.3718 24.3965C29.2218 23.5119 29.8638 22.4261 30.2978 21.1392C30.7318 19.8523 30.9489 18.4125 30.9489 16.8196C30.9489 15.2269 30.7312 13.8191 30.2959 12.5965C29.8605 11.3738 29.2192 10.2541 28.3718 9.2375C28.7621 9.12611 29.1905 9.03361 29.6571 8.96C30.1237 8.88643 30.5532 8.84964 30.9457 8.84964C33.2871 8.84964 35.202 9.59342 36.6905 11.081C38.179 12.5686 38.9232 14.4788 38.9232 16.8115ZM6.28281 38.5915H33.142V36.9577C33.142 36.4075 32.977 35.8742 32.6472 35.3577C32.3173 34.8413 31.9093 34.4801 31.4232 34.2742C28.9565 33.188 26.8848 32.4581 25.2083 32.0845C23.5318 31.7108 21.6999 31.524 19.7124 31.524C17.7415 31.524 15.903 31.7108 14.1967 32.0845C12.4904 32.4581 10.408 33.188 7.94948 34.2742C7.4717 34.4789 7.07448 34.8397 6.75781 35.3565C6.44115 35.8733 6.28281 36.407 6.28281 36.9577V38.5915ZM19.7104 21.3745C21.0298 21.3745 22.1205 20.9448 22.9824 20.0853C23.8444 19.2258 24.2754 18.1371 24.2754 16.8193C24.2754 15.5015 23.8456 14.4124 22.9861 13.5519C22.1266 12.6914 21.0379 12.2611 19.7201 12.2611C18.4023 12.2611 17.3132 12.6902 16.4527 13.5484C15.5922 14.4066 15.1619 15.4936 15.1619 16.8096C15.1619 18.129 15.591 19.2196 16.4492 20.0816C17.3074 20.9436 18.3945 21.3745 19.7104 21.3745Z" fill="#20282C"/>
</svg>
