<svg width="50" height="50" viewBox="0 0 50 50" fill="none" xmlns="http://www.w3.org/2000/svg">
<path d="M22.9402 23.7964C20.6852 23.7964 18.7635 23.0012 17.1751 21.4108C15.5868 19.8205 14.7926 17.9086 14.7926 15.6753C14.7926 13.4029 15.5878 11.4804 17.1782 9.90771C18.7686 8.335 20.6804 7.54865 22.9137 7.54865C25.1861 7.54865 27.1107 8.3358 28.6875 9.9101C30.2644 11.4844 31.0529 13.3974 31.0529 15.649C31.0529 17.9041 30.2645 19.8258 28.6878 21.414C27.1111 23.0023 25.1952 23.7964 22.9402 23.7964ZM22.9139 20.248C24.2019 20.248 25.2868 19.8002 26.1689 18.9047C27.0509 18.0092 27.4919 16.9326 27.4919 15.6751C27.4919 14.3871 27.0517 13.3022 26.1714 12.4202C25.2911 11.5381 24.2156 11.0971 22.9451 11.0971C21.6745 11.0971 20.5896 11.5389 19.6901 12.4224C18.7908 13.306 18.3411 14.3813 18.3411 15.6486C18.3411 16.9193 18.7888 18.0035 19.6844 18.9013C20.5799 19.7991 21.6564 20.248 22.9139 20.248ZM46.9076 49.4067L39.7281 42.2147C38.9295 42.7967 38.1088 43.1943 37.2661 43.4075C36.4234 43.6207 35.5627 43.7273 34.6839 43.7273C32.1594 43.7273 30.0135 42.8458 28.2462 41.0827C26.479 39.3195 25.5954 37.1785 25.5954 34.6597C25.5954 32.141 26.4778 30.0006 28.2427 28.2385C30.0076 26.4766 32.1506 25.5956 34.6718 25.5956C37.1931 25.5956 39.3347 26.4792 41.0967 28.2464C42.8587 30.0136 43.7397 32.1595 43.7397 34.6841C43.7397 35.5628 43.631 36.4235 43.4136 37.2663C43.1962 38.109 42.7965 38.9273 42.2145 39.7211L49.4066 46.9079L46.9076 49.4067ZM34.6583 40.1789C36.2301 40.1789 37.5431 39.6532 38.5974 38.6019C39.6516 37.5505 40.1787 36.2396 40.1787 34.669C40.1787 33.0985 39.6531 31.785 38.6017 30.7286C37.5504 29.6722 36.2394 29.144 34.6688 29.144C33.0983 29.144 31.7869 29.6705 30.7347 30.7236C29.6825 31.7766 29.1563 33.0897 29.1563 34.6627C29.1563 36.2357 29.6813 37.5483 30.7311 38.6005C31.7809 39.6528 33.09 40.1789 34.6583 40.1789ZM5.93848 42.1399V36.9078C5.93848 35.5648 6.25683 34.417 6.89353 33.4645C7.53023 32.512 8.45056 31.7282 9.65452 31.113C11.2948 30.3061 13.4713 29.5384 16.1842 28.81C18.897 28.0816 21.6782 27.825 24.5277 28.0401C24.1494 28.5575 23.8161 29.1269 23.5279 29.7483C23.2396 30.3698 23.0218 30.9616 22.8746 31.524C20.1746 31.481 17.8218 31.7918 15.8162 32.4564C13.8106 33.121 12.2576 33.7279 11.1572 34.2771C10.6687 34.553 10.2682 34.9242 9.95566 35.3907C9.64316 35.8573 9.48691 36.3754 9.48691 36.9452V38.5915H22.8372C23.2109 39.2276 23.5602 39.8316 23.8851 40.4035C24.2101 40.9754 24.5968 41.5542 25.0451 42.1399H5.93848Z" fill="#20282C"/>
</svg>
