<svg width="56" height="48" viewBox="0 0 56 48" fill="none" xmlns="http://www.w3.org/2000/svg">
<g clip-path="url(#clip0_752_2066)">
<mask id="mask0_752_2066" style="mask-type:luminance" maskUnits="userSpaceOnUse" x="0" y="0" width="56" height="48">
<path d="M56 0H0V48H56V0Z" fill="white"/>
</mask>
<g mask="url(#mask0_752_2066)">
<path d="M51.5415 0H4.29514C3.156 0 2.06351 0.459739 1.25802 1.27808C0.452521 2.09642 0 3.20633 0 4.36364V43.6364C0 44.7937 0.452521 45.9036 1.25802 46.722C2.06351 47.5402 3.156 48 4.29514 48H51.5415C52.6807 48 53.7732 47.5402 54.5787 46.722C55.3842 45.9036 55.8367 44.7937 55.8367 43.6364V4.36364C55.8367 3.20633 55.3842 2.09642 54.5787 1.27808C53.7732 0.459739 52.6807 0 51.5415 0ZM18.4691 28.8C18.9247 29.1472 19.226 29.6641 19.3065 30.2369C19.3871 30.8098 19.2403 31.3916 18.8985 31.8545C18.5568 32.3175 18.0481 32.6235 17.4842 32.7054C16.9204 32.7871 16.3476 32.6381 15.8919 32.2909L7.30173 25.7454C7.03501 25.5422 6.81852 25.2787 6.66943 24.9758C6.52032 24.6728 6.4427 24.3388 6.4427 24C6.4427 23.6613 6.52032 23.3273 6.66943 23.0243C6.81852 22.7214 7.03501 22.4578 7.30173 22.2546L15.8919 15.7091C16.3476 15.3619 16.9204 15.2128 17.4842 15.2947C18.0481 15.3765 18.5568 15.6825 18.8985 16.1455C19.2403 16.6083 19.3871 17.1902 19.3065 17.7631C19.226 18.3359 18.9247 18.8529 18.4691 19.2L12.1686 24L18.4691 28.8ZM34.2779 9.32727L25.6876 39.8727C25.6144 40.1531 25.4869 40.4158 25.3125 40.6456C25.1382 40.8753 24.9205 41.0674 24.6722 41.2106C24.4239 41.3538 24.15 41.4453 23.8666 41.4797C23.583 41.5141 23.2956 41.4908 23.0211 41.4109C22.7467 41.3311 22.4905 41.1966 22.2679 41.015C22.0451 40.8336 21.8603 40.6087 21.7242 40.3537C21.588 40.0988 21.5033 39.8188 21.4749 39.5302C21.4465 39.2415 21.475 38.95 21.5588 38.6728L30.1491 8.12727C30.3143 7.5811 30.6837 7.12252 31.178 6.85005C31.6723 6.57759 32.2521 6.513 32.7928 6.67014C33.3334 6.8273 33.7919 7.19365 34.0696 7.6905C34.3473 8.18734 34.422 8.77503 34.2779 9.32727ZM48.535 25.7454L39.9448 32.2909C39.4891 32.6381 38.9163 32.7871 38.3525 32.7054C37.7886 32.6235 37.2799 32.3175 36.9382 31.8545C36.5964 31.3916 36.4496 30.8098 36.5302 30.2369C36.6107 29.6641 36.912 29.1472 37.3677 28.8L43.6681 24L37.3677 19.2C37.142 19.0281 36.9519 18.8127 36.8083 18.5662C36.6645 18.3197 36.5701 18.0467 36.5302 17.7631C36.4903 17.4794 36.5058 17.1907 36.5758 16.9131C36.6458 16.6355 36.769 16.3746 36.9382 16.1455C37.1074 15.9162 37.3193 15.7231 37.562 15.5772C37.8047 15.4311 38.0733 15.3351 38.3525 15.2947C38.6316 15.2542 38.916 15.2698 39.1892 15.341C39.4624 15.4121 39.7191 15.5372 39.9448 15.7091L48.535 22.2546C48.8018 22.4578 49.0182 22.7214 49.1673 23.0243C49.3163 23.3273 49.394 23.6613 49.394 24C49.394 24.3388 49.3163 24.6728 49.1673 24.9758C49.0182 25.2787 48.8018 25.5422 48.535 25.7454Z" fill="#FEFEFE"/>
</g>
</g>
<defs>
<clipPath id="clip0_752_2066">
<rect width="56" height="48" fill="white"/>
</clipPath>
</defs>
</svg>
