<svg width="48" height="48" viewBox="0 0 48 48" fill="none" xmlns="http://www.w3.org/2000/svg">
<g clip-path="url(#clip0_752_2090)">
<path d="M35.3018 22.6928L39.488 18.5062L29.4894 8.50617L25.3032 12.6928L14.2647 1.67948C12.185 -0.400517 8.79881 -0.400517 6.71909 1.67948L1.65311 6.74617C-0.426606 8.82617 -0.426606 12.2128 1.65311 14.2928L12.6649 25.3062L0 37.9995V47.9995H9.99864L22.6903 35.3062L33.7021 46.3195C36.2351 48.8528 39.648 47.9195 41.2478 46.3195L46.3137 41.2528C48.3934 39.1728 48.3934 35.7862 46.3137 33.7062L35.3018 22.6928ZM16.4778 21.5195L5.43926 10.5062L10.4786 5.43954L13.8647 8.82617L10.7185 11.9995L14.478 15.7595L17.651 12.5862L21.5171 16.4528L16.4778 21.5195ZM37.4883 42.5595L26.4764 31.5462L31.5423 26.4795L35.4086 30.3462L32.2356 33.5195L35.9951 37.2795L39.1681 34.1062L42.5542 37.4928L37.4883 42.5595ZM47.2202 10.7728C47.4674 10.5262 47.6635 10.233 47.7973 9.91051C47.9311 9.58788 48 9.24205 48 8.8928C48 8.54354 47.9311 8.19771 47.7973 7.8752C47.6635 7.55257 47.4674 7.25954 47.2202 7.0128L40.9811 0.772821C39.728 -0.480517 37.9948 -0.000516551 37.2216 0.772821L32.3422 5.6528L42.3409 15.6528L47.2202 10.7728Z" fill="#FEFEFE"/>
</g>
<defs>
<clipPath id="clip0_752_2090">
<rect width="48" height="48" fill="white"/>
</clipPath>
</defs>
</svg>
