<svg width="58" height="48" viewBox="0 0 58 48" fill="none" xmlns="http://www.w3.org/2000/svg">
<g clip-path="url(#clip0_1309_1287)">
<path d="M53.2729 -0.315918H4.72945C3.55904 -0.315918 2.43656 0.14987 1.60896 0.978978C0.78135 1.80809 0.316406 2.9326 0.316406 4.10513V43.8946C0.316406 45.0671 0.78135 46.1916 1.60896 47.0208C2.43656 47.8499 3.55904 48.3156 4.72945 48.3156H53.2729C54.4434 48.3156 55.5658 47.8499 56.3934 47.0208C57.221 46.1916 57.686 45.0671 57.686 43.8946V4.10513C57.686 2.9326 57.221 1.80809 56.3934 0.978978C55.5658 0.14987 54.4434 -0.315918 53.2729 -0.315918ZM19.2925 28.863C19.7607 29.2148 20.0702 29.7384 20.1529 30.3188C20.2357 30.8992 20.0849 31.4887 19.7338 31.9578C19.3827 32.4268 18.86 32.7368 18.2806 32.8198C17.7013 32.9027 17.1128 32.7516 16.6447 32.3999L7.81858 25.7683C7.54454 25.5624 7.32212 25.2954 7.16892 24.9884C7.01573 24.6815 6.93597 24.343 6.93597 23.9999C6.93597 23.6567 7.01573 23.3182 7.16892 23.0113C7.32212 22.7043 7.54454 22.4373 7.81858 22.2314L16.6447 15.5999C17.1128 15.2481 17.7013 15.0971 18.2806 15.18C18.86 15.2629 19.3827 15.573 19.7338 16.042C20.0849 16.511 20.2357 17.1005 20.1529 17.6809C20.0702 18.2613 19.7607 18.7849 19.2925 19.1367L12.8191 23.9999L19.2925 28.863ZM35.5353 9.13408L26.7092 40.0814C26.6339 40.3655 26.5029 40.6317 26.3238 40.8644C26.1447 41.0972 25.921 41.2918 25.6659 41.4369C25.4108 41.582 25.1294 41.6747 24.8381 41.7095C24.5469 41.7444 24.2516 41.7207 23.9695 41.6399C23.6875 41.559 23.4244 41.4227 23.1956 41.2388C22.9667 41.0548 22.7768 40.8271 22.6369 40.5688C22.4971 40.3104 22.41 40.0268 22.3808 39.7343C22.3517 39.4419 22.381 39.1466 22.4671 38.8657L31.2932 7.91829C31.4629 7.36493 31.8424 6.90031 32.3503 6.62426C32.8582 6.34822 33.4539 6.28277 34.0094 6.44199C34.565 6.60121 35.036 6.97239 35.3213 7.47577C35.6066 7.97915 35.6834 8.57456 35.5353 9.13408ZM50.1838 25.7683L41.3577 32.3999C40.8896 32.7516 40.3011 32.9027 39.7218 32.8198C39.1424 32.7368 38.6197 32.4268 38.2686 31.9578C37.9175 31.4887 37.7667 30.8992 37.8495 30.3188C37.9322 29.7384 38.2417 29.2148 38.7099 28.863L45.1833 23.9999L38.7099 19.1367C38.4781 18.9625 38.2828 18.7443 38.1352 18.4945C37.9875 18.2447 37.8904 17.9683 37.8495 17.6809C37.8085 17.3935 37.8244 17.1009 37.8963 16.8197C37.9682 16.5385 38.0947 16.2742 38.2686 16.042C38.4424 15.8097 38.6603 15.6141 38.9096 15.4662C39.1589 15.3183 39.4349 15.221 39.7218 15.18C40.0086 15.1389 40.3007 15.1549 40.5814 15.2269C40.8621 15.299 41.1259 15.4257 41.3577 15.5999L50.1838 22.2314C50.4579 22.4373 50.6803 22.7043 50.8335 23.0113C50.9867 23.3182 51.0664 23.6567 51.0664 23.9999C51.0664 24.343 50.9867 24.6815 50.8335 24.9884C50.6803 25.2954 50.4579 25.5624 50.1838 25.7683Z" fill="#FEFEFE"/>
</g>
<defs>
<clipPath id="clip0_1309_1287">
<rect width="58" height="48" fill="white"/>
</clipPath>
</defs>
</svg>
