<svg width="44" height="48" viewBox="0 0 44 48" fill="none" xmlns="http://www.w3.org/2000/svg">
<path d="M15.6777 47.4668C19.778 47.4668 23.0859 43.9344 23.0859 39.5557V31.6446H15.6777C11.5774 31.6446 8.26953 35.177 8.26953 39.5557C8.26953 43.9344 11.5774 47.4668 15.6777 47.4668ZM8.26953 23.7334C8.26953 19.3547 11.5774 15.8223 15.6777 15.8223H23.0859V31.6446H15.6777C11.5774 31.6446 8.26953 28.1121 8.26953 23.7334ZM8.26953 7.91114C8.26953 3.53242 11.5774 0 15.6777 0H23.0859V15.8223H15.6777C11.5774 15.8223 8.26953 12.2899 8.26953 7.91114ZM23.0859 0H30.494C34.5944 0 37.9022 3.53242 37.9022 7.91114C37.9022 12.2899 34.5944 15.8223 30.494 15.8223H23.0859V0ZM37.9022 23.7334C37.9022 28.1121 34.5944 31.6446 30.494 31.6446C26.3937 31.6446 23.0859 28.1121 23.0859 23.7334C23.0859 19.3547 26.3937 15.8223 30.494 15.8223C34.5944 15.8223 37.9022 19.3547 37.9022 23.7334Z" fill="#FEFEFE"/>
</svg>
