<svg width="48" height="49" viewBox="0 0 48 49" fill="none" xmlns="http://www.w3.org/2000/svg">
<path d="M35.3019 22.6971L39.488 18.5092L29.4893 8.50625L25.3032 12.6942L14.2647 1.67754C12.185 -0.403077 8.79881 -0.403077 6.71909 1.67754L1.65311 6.74572C-0.426609 8.82634 -0.426609 12.214 1.65311 14.2946L12.6649 25.3113L0 38.0084V48.0114H9.99864L22.6903 35.3142L33.7021 46.3309C36.2351 48.865 39.648 47.9313 41.2477 46.3309L46.3137 41.2627C48.3934 39.1821 48.3934 35.7944 46.3137 33.7138L35.3019 22.6971ZM16.4778 21.5235L5.43926 10.5068L10.4786 5.43867L13.8648 8.82634L10.7185 12.0006L14.478 15.7617L17.6509 12.5875L21.5171 16.4553L16.4778 21.5235ZM37.4882 42.5697L26.4764 31.5531L31.5424 26.4849L35.4085 30.3528L32.2356 33.527L35.9951 37.2882L39.168 34.1139L42.5542 37.5016L37.4882 42.5697ZM47.2203 10.7736C47.4674 10.5268 47.6635 10.2337 47.7973 9.911C47.9311 9.58831 48 9.24238 48 8.89303C48 8.54368 47.9311 8.19775 47.7973 7.87506C47.6635 7.55237 47.4674 7.25925 47.2203 7.01247L40.9811 0.770606C39.7279 -0.483101 37.9948 -0.00295782 37.2216 0.770606L32.3423 5.65206L42.3409 15.655L47.2203 10.7736Z" fill="#FEFEFE"/>
</svg>
