<svg width="58" height="48" viewBox="0 0 58 48" fill="none" xmlns="http://www.w3.org/2000/svg">
<g clip-path="url(#clip0_1309_1281)">
<path d="M13.05 0C14.9728 0 16.8169 0.790176 18.1765 2.1967C19.5362 3.60322 20.3 5.51088 20.3 7.5C20.3 9.48912 19.5362 11.3968 18.1765 12.8033C16.8169 14.2098 14.9728 15 13.05 15C11.1272 15 9.28311 14.2098 7.92348 12.8033C6.56384 11.3968 5.8 9.48912 5.8 7.5C5.8 5.51088 6.56384 3.60322 7.92348 2.1967C9.28311 0.790176 11.1272 0 13.05 0ZM46.4 0C48.3228 0 50.1669 0.790176 51.5265 2.1967C52.8862 3.60322 53.65 5.51088 53.65 7.5C53.65 9.48912 52.8862 11.3968 51.5265 12.8033C50.1669 14.2098 48.3228 15 46.4 15C44.4772 15 42.6331 14.2098 41.2735 12.8033C39.9138 11.3968 39.15 9.48912 39.15 7.5C39.15 5.51088 39.9138 3.60322 41.2735 2.1967C42.6331 0.790176 44.4772 0 46.4 0ZM0 28.0031C0 22.4813 4.33187 18 9.66969 18H13.5394C14.9803 18 16.3488 18.3281 17.5813 18.9094C17.4634 19.5844 17.4091 20.2875 17.4091 21C17.4091 24.5813 18.9316 27.7969 21.3331 30H1.93031C0.87 30 0 29.1 0 28.0031ZM36.7303 30H36.6669C39.0775 27.7969 40.5909 24.5813 40.5909 21C40.5909 20.2875 40.5275 19.5937 40.4188 18.9094C41.6513 18.3187 43.0197 18 44.4606 18H48.3303C53.6681 18 58 22.4813 58 28.0031C58 29.1094 57.13 30 56.0697 30H36.7303ZM20.3 21C20.3 18.6131 21.2166 16.3239 22.8482 14.636C24.4797 12.9482 26.6926 12 29 12C31.3074 12 33.5203 12.9482 35.1518 14.636C36.7834 16.3239 37.7 18.6131 37.7 21C37.7 23.3869 36.7834 25.6761 35.1518 27.364C33.5203 29.0518 31.3074 30 29 30C26.6926 30 24.4797 29.0518 22.8482 27.364C21.2166 25.6761 20.3 23.3869 20.3 21ZM11.6 45.4969C11.6 38.5969 17.0103 33 23.6803 33H34.3197C40.9897 33 46.4 38.5969 46.4 45.4969C46.4 46.875 45.3216 48 43.9803 48H14.0197C12.6875 48 11.6 46.8844 11.6 45.4969Z" fill="#FEFEFE"/>
</g>
<defs>
<clipPath id="clip0_1309_1281">
<rect width="58" height="48" fill="white"/>
</clipPath>
</defs>
</svg>
